<?xml version="1.0" encoding="UTF-8"?>
<svg width="136px" height="30px" viewBox="0 0 136 30" version="1.1" xmlns="http://www.w3.org/2000/svg" xmlns:xlink="http://www.w3.org/1999/xlink">
    <g stroke="none" stroke-width="1" fill="none" fill-rule="evenodd">
        <g transform="translate(-34.000000, -30.000000)">
            <g transform="translate(34.000000, 30.000000)">
                <g fill="#FFFFFF" fill-rule="nonzero" id="Shape">
                    <polygon points="5.555216 0.292184211 0 0.292184211 0 29.4823421 5.555216 29.4823421"></polygon>
                    <path d="M20.63368,10.904211 C18.19408,10.904211 16.342376,11.7669711 15.343024,13.1186368 L15.343024,11.4218684 L9.81720045,11.4218684 L9.81720045,29.5111579 L15.372416,29.5111579 L15.372416,19.6181053 C15.372416,17.0585842 16.783272,15.9082342 18.81136,15.9082342 C20.57496,15.9082342 22.0152,16.94355 22.0152,19.1867368 L22.0152,29.4823421 L27.5704,29.4823421 L27.5704,18.41025 C27.54096,13.5212605 24.36656,10.904211 20.63368,10.904211 Z"></path>
                    <path d="M52.73016,10.904211 C47.29252,10.904211 42.9424018,15.0742342 42.9424018,20.4521053 C42.9424018,25.83 47.29252,30 52.73016,30 C58.16784,30 62.51792,25.83 62.51792,20.4521053 C62.51792,15.0742342 58.16784,10.904211 52.73016,10.904211 Z M52.73016,24.7372105 C50.319968,24.7372105 48.497616,23.0116579 48.497616,20.4521053 C48.497616,17.8925921 50.34936,16.1958237 52.7596,16.1958237 C55.16976,16.1958237 57.02152,17.8925921 57.02152,20.4521053 C56.99208,23.0116579 55.1404,24.7372105 52.73016,24.7372105 Z"></path>
                    <path d="M74.6572,16.2532895 C76.27376,16.2532895 77.62584,17.0010158 78.24312,18.2664 L83.09288,15.5055553 C81.50568,12.7159579 78.33128,10.8753945 74.74536,10.8753945 C69.13136,10.8753945 64.9576,15.0454184 64.9576,20.4232895 C64.9576,25.8011842 69.13136,29.9711842 74.74536,29.9711842 C78.36064,29.9711842 81.50568,28.1306842 83.09288,25.3122632 L78.24312,22.6089474 C77.65528,23.8743947 76.27376,24.6221053 74.6572,24.6221053 C72.246992,24.6221053 70.483424,22.9252895 70.483424,20.4232895 C70.483424,17.95005 72.276384,16.2532895 74.6572,16.2532895 Z"></path>
                    <path d="M95.35016,10.904211 C89.91252,10.904211 85.5624018,15.0742342 85.5624018,20.4521053 C85.5624018,25.83 89.91252,30 95.35016,30 C100.78784,30 105.13792,25.83 105.13792,20.4521053 C105.13792,15.0742342 100.78784,10.904211 95.35016,10.904211 Z M95.35016,24.7372105 C92.939968,24.7372105 91.088224,23.0403947 91.088224,20.4808421 C91.088224,17.9213526 92.939968,16.2245842 95.35016,16.2245842 C97.7604,16.2245842 99.61208,17.9213526 99.61208,20.4808421 C99.58272,23.0116579 97.73096,24.7372105 95.35016,24.7372105 Z"></path>
                    <path d="M128.97488,10.904211 C126.35888,10.904211 124.65416,11.8532526 123.62536,13.2911921 C122.59664,11.7669711 120.95064,10.904211 118.7756,10.904211 C116.30664,10.904211 114.660608,11.8532526 113.837616,13.0611158 L113.837616,11.3931095 L108.282398,11.3931095 L108.282398,29.4823421 L113.837616,29.4823421 L113.837616,19.3017632 C113.837616,17.1736263 114.866368,15.9082342 116.71808,15.9082342 C118.48168,15.9082342 119.36344,17.0585842 119.36344,18.8703947 L119.36344,29.5111579 L124.91864,29.5111579 L124.91864,19.3017632 C124.91864,17.1736263 125.94744,15.9082342 127.79912,15.9082342 C129.56272,15.9082342 130.44448,17.0585842 130.44448,18.8703947 L130.44448,29.5111579 L135.99968,29.5111579 L135.99968,18.41025 C135.97032,13.8663632 133.20736,10.904211 128.97488,10.904211 Z"></path>
                    <path d="M34.153936,7.33808684 L34.153936,10.4152895 C34.153936,12.2270526 33.125192,12.4859211 31.4791996,12.2846053 L31.4791996,17.7199737 C33.125192,17.5186579 34.153936,17.8062632 34.153936,19.5892895 L34.153936,29.2810263 L39.91488,29.2810263 L39.91488,19.5892895 C39.91488,17.5186579 39.268264,15.9369474 37.886808,14.9591842 C39.268264,14.0101579 39.91488,12.4283684 39.91488,10.3865526 L39.91488,7.33808684 C39.91488,5.52628421 42.14872,5.26745526 43.79472,5.46877105 L43.79472,0.0333608684 C37.9162,-0.340503158 34.153936,2.44909737 34.153936,7.33808684 Z"></path>
                </g>
            </g>
        </g>
    </g>
</svg>